<?xml version="1.0" standalone="no"?><!DOCTYPE svg PUBLIC "-//W3C//DTD SVG 1.1//EN" "http://www.w3.org/Graphics/SVG/1.1/DTD/svg11.dtd"><svg t="1564668796510" class="icon" viewBox="0 0 1024 1024" version="1.1" xmlns="http://www.w3.org/2000/svg" p-id="2619" xmlns:xlink="http://www.w3.org/1999/xlink" width="64" height="64"><defs><style type="text/css"></style></defs><path d="M794.482759 317.793103h105.931034a70.62069 70.62069 0 0 1 70.62069 70.62069v564.965517a70.62069 70.62069 0 0 1-70.62069 70.62069H123.586207a70.62069 70.62069 0 0 1-70.62069-70.62069V388.413793a70.62069 70.62069 0 0 1 70.62069-70.62069h105.931034V282.482759a282.482759 282.482759 0 1 1 564.965518 0v35.310344z m-105.931035 0V282.482759A176.551724 176.551724 0 0 0 335.448276 282.482759v35.310344h353.103448z m-158.896552 459.034483a88.275862 88.275862 0 1 0 0-176.551724 88.275862 88.275862 0 0 0 0 176.551724z" p-id="2620" fill="#bbbbbb"></path></svg>