<?xml version="1.0" standalone="no"?><!DOCTYPE svg PUBLIC "-//W3C//DTD SVG 1.1//EN" "http://www.w3.org/Graphics/SVG/1.1/DTD/svg11.dtd"><svg t="1564663518679" class="icon" viewBox="0 0 1024 1024" version="1.1" xmlns="http://www.w3.org/2000/svg" p-id="2604" xmlns:xlink="http://www.w3.org/1999/xlink" width="64" height="64"><defs><style type="text/css"></style></defs><path d="M896.97 16.576H119.702c-61.317 0-111.038 49.665-111.038 111.038V904.88c0 61.265 49.721 111.039 111.038 111.039H896.97c61.314 0 111.036-49.774 111.036-111.04V127.615c0.001-61.373-49.721-111.038-111.035-111.038z m-19.845 324.22L443.975 773.89c-11.68 11.736-26.883 17.735-42.168 18.026-15.07 1.232-30.563-3.9-42.086-15.423L133.583 550.407c-20.767-20.82-20.767-54.549 0-75.369 20.82-20.819 54.594-20.819 75.414 0l180.305 180.348 401.18-401.337c23.965-23.854 62.728-23.854 86.643 0 23.968 24.077 23.968 62.785 0 86.747z" p-id="2605" fill="#49d601"></path></svg>